{
  "accessors": [
    {
      "bufferView": 2,
      "componentType": 5126,
      "count": 14647,
      "max": [
        15.43690013885498,
        15.150600433349609,
        13.787200927734375
      ],
      "min": [
        -14.282400131225586,
        -15.305299758911133,
        5.7909011840820312
      ],
      "type": "VEC3"
    },
    {
      "bufferView": 2,
      "byteOffset": 175764,
      "componentType": 5126,
      "count": 14647,
      "max": [
        0.99982833862304688,
        0.99995678663253784,
        0.99997854232788086
      ],
      "min": [
        -0.99987274408340454,
        -0.99999338388442993,
        -0.99997776746749878
      ],
      "type": "VEC3"
    },
    {
      "bufferView": 1,
      "componentType": 5126,
      "count": 14647,
      "max": [
        0.99949997663497925,
        0.98960000276565552
      ],
      "min": [
        0.10429999977350235,
        0.00050000002374872565
      ],
      "type": "VEC2"
    },
    {
      "bufferView": 0,
      "componentType": 5125,
      "count": 51756,
      "max": [
        14646
      ],
      "min": [
        0
      ],
      "type": "SCALAR"
    },
    {
      "bufferView": 2,
      "byteOffset": 351528,
      "componentType": 5126,
      "count": 16043,
      "max": [
        20.10059928894043,
        19.848499298095703,
        8.0774993896484375
      ],
      "min": [
        -19.566699981689453,
        -19.754499435424805,
        -0.021702000871300697
      ],
      "type": "VEC3"
    },
    {
      "bufferView": 2,
      "byteOffset": 544044,
      "componentType": 5126,
      "count": 16043,
      "max": [
        0.99930036067962646,
        0.99993348121643066,
        0.99997526407241821
      ],
      "min": [
        -0.99989765882492065,
        -0.99974536895751953,
        -0.99999147653579712
      ],
      "type": "VEC3"
    },
    {
      "bufferView": 1,
      "byteOffset": 117176,
      "componentType": 5126,
      "count": 16043,
      "max": [
        0.99900001287460327,
        0.99000000953674316
      ],
      "min": [
        0.03020000085234642,
        0.00050000002374872565
      ],
      "type": "VEC2"
    },
    {
      "bufferView": 0,
      "byteOffset": 207024,
      "componentType": 5125,
      "count": 55689,
      "max": [
        16042
      ],
      "min": [
        0
      ],
      "type": "SCALAR"
    },
    {
      "bufferView": 2,
      "byteOffset": 736560,
      "componentType": 5126,
      "count": 9391,
      "max": [
        17.557399749755859,
        17.556400299072266,
        14.17140007019043
      ],
      "min": [
        -24.285600662231445,
        -17.660900115966797,
        -0.44459900259971619
      ],
      "type": "VEC3"
    },
    {
      "bufferView": 2,
      "byteOffset": 849252,
      "componentType": 5126,
      "count": 9391,
      "max": [
        0.99999064207077026,
        0.99996489286422729,
        0.99999624490737915
      ],
      "min": [
        -0.99985212087631226,
        -0.99989777803421021,
        -0.99996709823608398
      ],
      "type": "VEC3"
    },
    {
      "bufferView": 1,
      "byteOffset": 245520,
      "componentType": 5126,
      "count": 9391,
      "max": [
        0.98669999837875366,
        0.99029999971389771
      ],
      "min": [
        0.00050000002374872565,
        0.00419999985024333
      ],
      "type": "VEC2"
    },
    {
      "bufferView": 0,
      "byteOffset": 429780,
      "componentType": 5125,
      "count": 34566,
      "max": [
        9390
      ],
      "min": [
        0
      ],
      "type": "SCALAR"
    },
    {
      "bufferView": 2,
      "byteOffset": 961944,
      "componentType": 5126,
      "count": 8158,
      "max": [
        34.271800994873047,
        35.052894592285156,
        9.7105998992919922
      ],
      "min": [
        -24.286600112915039,
        -8.7954998016357422,
        -0.44459900259971619
      ],
      "type": "VEC3"
    },
    {
      "bufferView": 2,
      "byteOffset": 1059840,
      "componentType": 5126,
      "count": 8158,
      "max": [
        1,
        1,
        1
      ],
      "min": [
        -1,
        -1,
        -1
      ],
      "type": "VEC3"
    },
    {
      "bufferView": 1,
      "byteOffset": 320648,
      "componentType": 5126,
      "count": 8158,
      "max": [
        0.99400001764297485,
        0.99029999971389771
      ],
      "min": [
        0.00050000002374872565,
        0.00050000002374872565
      ],
      "type": "VEC2"
    },
    {
      "bufferView": 0,
      "byteOffset": 568044,
      "componentType": 5125,
      "count": 25434,
      "max": [
        8157
      ],
      "min": [
        0
      ],
      "type": "SCALAR"
    },
    {
      "bufferView": 2,
      "byteOffset": 1157736,
      "componentType": 5126,
      "count": 4930,
      "max": [
        -9.5185003280639648,
        6.6419000625610352,
        24.333099365234375
      ],
      "min": [
        -15.552300453186035,
        -6.5422000885009766,
        7.4293990135192871
      ],
      "type": "VEC3"
    },
    {
      "bufferView": 2,
      "byteOffset": 1216896,
      "componentType": 5126,
      "count": 4930,
      "max": [
        1.9000002794200554e-05,
        0.99778449535369873,
        0.99991720914840698
      ],
      "min": [
        -0.99591034650802612,
        -0.99776273965835571,
        -0.99880111217498779
      ],
      "type": "VEC3"
    },
    {
      "bufferView": 1,
      "byteOffset": 385912,
      "componentType": 5126,
      "count": 4930,
      "max": [
        0.99659997224807739,
        0.99049997329711914
      ],
      "min": [
        0.048700001090764999,
        0.00050000002374872565
      ],
      "type": "VEC2"
    },
    {
      "bufferView": 0,
      "byteOffset": 669780,
      "componentType": 5125,
      "count": 17850,
      "max": [
        4929
      ],
      "min": [
        0
      ],
      "type": "SCALAR"
    },
    {
      "bufferView": 2,
      "byteOffset": 1276056,
      "componentType": 5126,
      "count": 14439,
      "max": [
        32.503398895263672,
        36.295501708984375,
        26.159200668334961
      ],
      "min": [
        17.905000686645508,
        15.930000305175781,
        19.536500930786133
      ],
      "type": "VEC3"
    },
    {
      "bufferView": 2,
      "byteOffset": 1449324,
      "componentType": 5126,
      "count": 14439,
      "max": [
        0.99999034404754639,
        0.9988863468170166,
        0.99999266862869263
      ],
      "min": [
        -0.99999076128005981,
        -0.99884724617004395,
        -1
      ],
      "type": "VEC3"
    },
    {
      "bufferView": 1,
      "byteOffset": 425352,
      "componentType": 5126,
      "count": 14439,
      "max": [
        0.99599999189376831,
        0.98930001258850098
      ],
      "min": [
        0.00050000002374872565,
        0.00050000002374872565
      ],
      "type": "VEC2"
    },
    {
      "bufferView": 0,
      "byteOffset": 741180,
      "componentType": 5125,
      "count": 52008,
      "max": [
        14438
      ],
      "min": [
        0
      ],
      "type": "SCALAR"
    },
    {
      "bufferView": 2,
      "byteOffset": 1622592,
      "componentType": 5126,
      "count": 4001,
      "max": [
        15.701700210571289,
        15.798600196838379,
        30.906000137329102
      ],
      "min": [
        -15.701700210571289,
        -15.701700210571289,
        16.758600234985352
      ],
      "type": "VEC3"
    },
    {
      "bufferView": 2,
      "byteOffset": 1670604,
      "componentType": 5126,
      "count": 4001,
      "max": [
        0.99999946355819702,
        1,
        1
      ],
      "min": [
        -1,
        -1,
        -1
      ],
      "type": "VEC3"
    },
    {
      "bufferView": 1,
      "byteOffset": 540864,
      "componentType": 5126,
      "count": 4001,
      "max": [
        0.9944000244140625,
        0.98890000581741333
      ],
      "min": [
        0.037599999457597733,
        0.015300000086426735
      ],
      "type": "VEC2"
    },
    {
      "bufferView": 0,
      "byteOffset": 949212,
      "componentType": 5125,
      "count": 13200,
      "max": [
        4000
      ],
      "min": [
        0
      ],
      "type": "SCALAR"
    },
    {
      "bufferView": 2,
      "byteOffset": 1718616,
      "componentType": 5126,
      "count": 9520,
      "max": [
        27.155300140380859,
        34.812995910644531,
        70.91290283203125
      ],
      "min": [
        -20.246400833129883,
        -29.861200332641602,
        -0.06449899822473526
      ],
      "type": "VEC3"
    },
    {
      "bufferView": 2,
      "byteOffset": 1832856,
      "componentType": 5126,
      "count": 9520,
      "max": [
        1,
        0.9997636079788208,
        1
      ],
      "min": [
        -1,
        -0.99974501132965088,
        -1
      ],
      "type": "VEC3"
    },
    {
      "bufferView": 1,
      "byteOffset": 572872,
      "componentType": 5126,
      "count": 9520,
      "max": [
        0.98979997634887695,
        0.99919998645782471
      ],
      "min": [
        0.00050000002374872565,
        0.018300000578165054
      ],
      "type": "VEC2"
    },
    {
      "bufferView": 0,
      "byteOffset": 1002012,
      "componentType": 5125,
      "count": 34164,
      "max": [
        9519
      ],
      "min": [
        0
      ],
      "type": "SCALAR"
    },
    {
      "bufferView": 2,
      "byteOffset": 1947096,
      "componentType": 5126,
      "count": 9956,
      "max": [
        37.5,
        37.5,
        26.814599990844727
      ],
      "min": [
        -37.5,
        -37.5,
        -3.0149989128112793
      ],
      "type": "VEC3"
    },
    {
      "bufferView": 2,
      "byteOffset": 2066568,
      "componentType": 5126,
      "count": 9956,
      "max": [
        1,
        1,
        1
      ],
      "min": [
        -1,
        -1,
        -1
      ],
      "type": "VEC3"
    },
    {
      "bufferView": 1,
      "byteOffset": 649032,
      "componentType": 5126,
      "count": 9956,
      "max": [
        0.99809998273849487,
        0.99949997663497925
      ],
      "min": [
        0.00050000002374872565,
        0.00050000002374872565
      ],
      "type": "VEC2"
    },
    {
      "bufferView": 0,
      "byteOffset": 1138668,
      "componentType": 5125,
      "count": 34842,
      "max": [
        9955
      ],
      "min": [
        0
      ],
      "type": "SCALAR"
    },
    {
      "bufferView": 2,
      "byteOffset": 2186040,
      "componentType": 5126,
      "count": 6760,
      "max": [
        30.888099670410156,
        38.228897094726562,
        53.957599639892578
      ],
      "min": [
        -33.985801696777344,
        -34.690101623535156,
        -0.98360097408294678
      ],
      "type": "VEC3"
    },
    {
      "bufferView": 2,
      "byteOffset": 2267160,
      "componentType": 5126,
      "count": 6760,
      "max": [
        0.99870401620864868,
        1,
        1
      ],
      "min": [
        -0.99986499547958374,
        -1,
        -1
      ],
      "type": "VEC3"
    },
    {
      "bufferView": 1,
      "byteOffset": 728680,
      "componentType": 5126,
      "count": 6760,
      "max": [
        0.99010002613067627,
        0.99940001964569092
      ],
      "min": [
        0.00050000002374872565,
        0.044900000095367432
      ],
      "type": "VEC2"
    },
    {
      "bufferView": 0,
      "byteOffset": 1278036,
      "componentType": 5125,
      "count": 25689,
      "max": [
        6759
      ],
      "min": [
        0
      ],
      "type": "SCALAR"
    },
    {
      "bufferView": 2,
      "byteOffset": 2348280,
      "componentType": 5126,
      "count": 4982,
      "max": [
        31.034400939941406,
        31.936899185180664,
        43.149101257324219
      ],
      "min": [
        -28.333599090576172,
        -28.333599090576172,
        2.6317999362945557
      ],
      "type": "VEC3"
    },
    {
      "bufferView": 2,
      "byteOffset": 2408064,
      "componentType": 5126,
      "count": 4982,
      "max": [
        1,
        1,
        1
      ],
      "min": [
        -1,
        -1,
        -1
      ],
      "type": "VEC3"
    },
    {
      "bufferView": 1,
      "byteOffset": 782760,
      "componentType": 5126,
      "count": 4982,
      "max": [
        0.98720002174377441,
        0.99959999322891235
      ],
      "min": [
        0.00019999999494757503,
        0.018300000578165054
      ],
      "type": "VEC2"
    },
    {
      "bufferView": 0,
      "byteOffset": 1380792,
      "componentType": 5125,
      "count": 17778,
      "max": [
        4981
      ],
      "min": [
        0
      ],
      "type": "SCALAR"
    }
  ],
  "asset": {
    "extras": {
      "author": "atalik_ST (https://sketchfab.com/atalik_ST)",
      "license": "CC-BY-4.0 (http://creativecommons.org/licenses/by/4.0/)",
      "source": "https://sketchfab.com/3d-models/mini-tower-9fa1a8055f2f4c6baa0740c03660136b",
      "title": "Mini tower"
    },
    "generator": "Sketchfab-7.91.0",
    "version": "2.0"
  },
  "bufferViews": [
    {
      "buffer": 0,
      "byteLength": 1451904,
      "byteOffset": 0,
      "name": "floatBufferViews",
      "target": 34963
    },
    {
      "buffer": 0,
      "byteLength": 822616,
      "byteOffset": 1451904,
      "byteStride": 8,
      "name": "floatBufferViews",
      "target": 34962
    },
    {
      "buffer": 0,
      "byteLength": 2467848,
      "byteOffset": 2274520,
      "byteStride": 12,
      "name": "floatBufferViews",
      "target": 34962
    }
  ],
  "buffers": [
    {
      "byteLength": 4742368,
      "uri": "scene.bin"
    }
  ],
  "images": [
    {
      "uri": "textures/Kirpich_2_baseColor.png"
    },
    {
      "uri": "textures/Osnova_baseColor.png"
    },
    {
      "uri": "textures/Osnova_emissive.png"
    }
  ],
  "materials": [
    {
      "doubleSided": true,
      "emissiveFactor": [
        1,
        1,
        1
      ],
      "emissiveTexture": {
        "index": 0,
        "texCoord": 0
      },
      "name": "Kirpich_2",
      "pbrMetallicRoughness": {
        "baseColorFactor": [
          1,
          1,
          1,
          1
        ],
        "baseColorTexture": {
          "index": 0,
          "texCoord": 0
        },
        "metallicFactor": 0,
        "roughnessFactor": 0.59999999999999998
      }
    },
    {
      "doubleSided": true,
      "emissiveFactor": [
        0.50495426829268297,
        0.50495426829268297,
        0.50495426829268297
      ],
      "emissiveTexture": {
        "index": 2,
        "texCoord": 0
      },
      "name": "Osnova",
      "pbrMetallicRoughness": {
        "baseColorFactor": [
          1,
          1,
          1,
          1
        ],
        "baseColorTexture": {
          "index": 1,
          "texCoord": 0
        },
        "metallicFactor": 0,
        "roughnessFactor": 0.59999999999999998
      }
    }
  ],
  "meshes": [
    {
      "primitives": [
        {
          "attributes": {
            "NORMAL": 1,
            "POSITION": 0,
            "TEXCOORD_0": 2
          },
          "indices": 3,
          "material": 0,
          "mode": 4
        }
      ]
    },
    {
      "primitives": [
        {
          "attributes": {
            "NORMAL": 5,
            "POSITION": 4,
            "TEXCOORD_0": 6
          },
          "indices": 7,
          "material": 0,
          "mode": 4
        }
      ]
    },
    {
      "primitives": [
        {
          "attributes": {
            "NORMAL": 9,
            "POSITION": 8,
            "TEXCOORD_0": 10
          },
          "indices": 11,
          "material": 0,
          "mode": 4
        }
      ]
    },
    {
      "primitives": [
        {
          "attributes": {
            "NORMAL": 13,
            "POSITION": 12,
            "TEXCOORD_0": 14
          },
          "indices": 15,
          "material": 0,
          "mode": 4
        }
      ]
    },
    {
      "primitives": [
        {
          "attributes": {
            "NORMAL": 17,
            "POSITION": 16,
            "TEXCOORD_0": 18
          },
          "indices": 19,
          "material": 0,
          "mode": 4
        }
      ]
    },
    {
      "primitives": [
        {
          "attributes": {
            "NORMAL": 21,
            "POSITION": 20,
            "TEXCOORD_0": 22
          },
          "indices": 23,
          "material": 0,
          "mode": 4
        }
      ]
    },
    {
      "primitives": [
        {
          "attributes": {
            "NORMAL": 25,
            "POSITION": 24,
            "TEXCOORD_0": 26
          },
          "indices": 27,
          "material": 0,
          "mode": 4
        }
      ]
    },
    {
      "primitives": [
        {
          "attributes": {
            "NORMAL": 29,
            "POSITION": 28,
            "TEXCOORD_0": 30
          },
          "indices": 31,
          "material": 1,
          "mode": 4
        }
      ]
    },
    {
      "primitives": [
        {
          "attributes": {
            "NORMAL": 33,
            "POSITION": 32,
            "TEXCOORD_0": 34
          },
          "indices": 35,
          "material": 1,
          "mode": 4
        }
      ]
    },
    {
      "primitives": [
        {
          "attributes": {
            "NORMAL": 37,
            "POSITION": 36,
            "TEXCOORD_0": 38
          },
          "indices": 39,
          "material": 1,
          "mode": 4
        }
      ]
    },
    {
      "primitives": [
        {
          "attributes": {
            "NORMAL": 41,
            "POSITION": 40,
            "TEXCOORD_0": 42
          },
          "indices": 43,
          "material": 1,
          "mode": 4
        }
      ]
    }
  ],
  "nodes": [
    {
      "children": [
        1
      ],
      "name": "RootNode (gltf orientation matrix)",
      "rotation": [
        -0.70710678118654746,
        -0,
        -0,
        0.70710678118654757
      ]
    },
    {
      "children": [
        2
      ],
      "name": "RootNode (model correction matrix)"
    },
    {
      "children": [
        3,
        4,
        5,
        6,
        7,
        8,
        9,
        10,
        11,
        12,
        13
      ],
      "name": "1.obj.cleaner.materialmerger.gles"
    },
    {
      "mesh": 0,
      "name": ""
    },
    {
      "mesh": 1,
      "name": ""
    },
    {
      "mesh": 2,
      "name": ""
    },
    {
      "mesh": 3,
      "name": ""
    },
    {
      "mesh": 4,
      "name": ""
    },
    {
      "mesh": 5,
      "name": ""
    },
    {
      "mesh": 6,
      "name": ""
    },
    {
      "mesh": 7,
      "name": ""
    },
    {
      "mesh": 8,
      "name": ""
    },
    {
      "mesh": 9,
      "name": ""
    },
    {
      "mesh": 10,
      "name": ""
    }
  ],
  "samplers": [
    {
      "magFilter": 9729,
      "minFilter": 9987,
      "wrapS": 10497,
      "wrapT": 10497
    }
  ],
  "scene": 0,
  "scenes": [
    {
      "name": "OSG_Scene",
      "nodes": [
        0
      ]
    }
  ],
  "textures": [
    {
      "sampler": 0,
      "source": 0
    },
    {
      "sampler": 0,
      "source": 1
    },
    {
      "sampler": 0,
      "source": 2
    }
  ]
}

