<?xml version="1.0" encoding="UTF-8" standalone="no"?>
<!-- Created with Inkscape (http://www.inkscape.org/) -->

<svg
   xmlns:dc="http://purl.org/dc/elements/1.1/"
   xmlns:cc="http://creativecommons.org/ns#"
   xmlns:rdf="http://www.w3.org/1999/02/22-rdf-syntax-ns#"
   xmlns:svg="http://www.w3.org/2000/svg"
   xmlns="http://www.w3.org/2000/svg"
   xmlns:sodipodi="http://sodipodi.sourceforge.net/DTD/sodipodi-0.dtd"
   xmlns:inkscape="http://www.inkscape.org/namespaces/inkscape"
   id="svg3347"
   version="1.1"
   inkscape:version="0.91 r13725"
   width="1205"
   height="708"
   viewBox="0 0 1205 708"
   sodipodi:docname="level.svg">
  <metadata
     id="metadata3353">
    <rdf:RDF>
      <cc:Work
         rdf:about="">
        <dc:format>image/svg+xml</dc:format>
        <dc:type
           rdf:resource="http://purl.org/dc/dcmitype/StillImage" />
        <dc:title></dc:title>
      </cc:Work>
    </rdf:RDF>
  </metadata>
  <defs
     id="defs3351" />
  <sodipodi:namedview
     pagecolor="#ffffff"
     bordercolor="#666666"
     borderopacity="1"
     objecttolerance="10"
     gridtolerance="10"
     guidetolerance="10"
     inkscape:pageopacity="0"
     inkscape:pageshadow="2"
     inkscape:window-width="1920"
     inkscape:window-height="1017"
     id="namedview3349"
     showgrid="false"
     inkscape:zoom="0.95601664"
     inkscape:cx="5800.2585"
     inkscape:cy="-911.05945"
     inkscape:window-x="-8"
     inkscape:window-y="-8"
     inkscape:window-maximized="1"
     inkscape:current-layer="svg3347" />
  <path
     id="path3344"
     style="fill:none;fill-rule:evenodd;stroke:#000000;stroke-width:1px;stroke-linecap:butt;stroke-linejoin:miter;stroke-opacity:1"
     d="m 2398.4939,1219.4974 0,134.9349 221.7534,0 0,-50.2084 106.6927,0 0,-39.7482 244.7656,0 27.1962,27.1962 91.0026,0 11.9453,-44.5804 36.3925,-9.7513 0,-454.0277 -840.165,0 0,78.45052 -33.4722,0 0,42.88628 20.9201,0 0,92.04861 -34.5182,0 0,46.02429 -19.8742,0 0,105.6467 55.4384,0 0,107.7387 -50.2083,0 0,61.7144 82.6345,0 0,-81.5885 56.4844,0 0,-17.7821 z m 3203.9191,675.7204 28.2422,0 0,-33.4722 44.9784,0 0,-102.5087 36.6102,0 0,199.7874 0,87.8645 -38.7022,0 0,35.5643 -46.0244,0 0,-71.1285 -26.1502,0 z m 1175.8755,-306.1672 0,37.6563 72.1745,0 0,34.5182 11.5061,0 4.184,16.736 -35.5642,89.9566 -16.7362,0 0,40.7943 36.6103,10e-5 0,33.4722 75.3125,0 0,29.2882 107.7387,0 63.8064,-165.2691 0,-166.3152 -321.1241,0 z m 574.2578,466.5191 0,40.7943 74.2665,0 0,34.5182 -37.6562,0 0,183.0513 36.6102,0 0,34.5182 41.8403,0 0,-17.7821 30.3342,12.552 3.5021,6.0659 39.3842,0 0,-80.3323 19.8741,-62.7605 14.1861,3.8012 0,-40.4115 13.0101,-37.6563 23.0121,0 0,-35.5641 37.6563,0 0,-41.8403 z m -537.5322,-72.1201 252.9564,0 0,110.9459 -35.5026,0 0,514.7885 -222.6477,-2.092 z m -318.7842,-1.4792 0,146.4485 -11.4379,6.6036 0,128.7503 -243.0849,3.138 0,-122.0405 0.8268,-145.1486 0,-17.0117 z m -685.8372,-58.4315 0,107.9873 71.2065,0 0,-38.4611 32.5441,0 0,-71.0054 89.4963,-255.1754 12.5739,0 0,37.7216 38.4612,0 0,-41.4197 -34.0234,0 0,-36.9819 -37.7216,0 0,-34.7631 -76.9224,0 1.1512,144.9692 -62.7424,0 0,76.9224 -8.136,26.6271 -25.8874,0 0,40.68 -36.9819,0 0,43.6387 z m -128.0965,-351.7193 0,65.5705 37.6563,-0.7615 0,32.1416 77.4045,0 0,-29.3934 -36.6102,0 0,-34.0849 -36.6103,0 0,-37.6563 z m -126.7898,166.8099 0,110.8768 43.9323,0 0,-110.8768 z m -145.395,-28.242 0,165.269 44.9783,0 0,-169.4532 z m -189.3272,73.2203 11.506,-27.1961 0,-43.9323 76.3586,0 0,74.2666 -7.3221,0 -4.184,11.5059 5.23,15.6901 0,62.7605 -80.5425,0 z m -334.7223,-870.27768 0,18.82813 39.7483,0 0,178.86715 93.0946,0 126.5669,37.6563 0,27.1961 71.1284,0 0,72.1746 43.9323,0 0,-38.7024 37.6563,0 0,-24.0581 606.684,202.9253 0,61.7144 110.8767,0 0,-77.4045 39.7483,0 0,-35.5642 84.7266,0 0,-400.62063 -1130.7335,0 0,-25.10416 z m -199.7873,687.22658 0,-17.7822 12.5521,-32.4262 19.8741,-4.184 30.3342,-36.6103 -26.1501,-2.092 -1.046,-75.3125 34.5182,0 0,-39.7483 329.4922,0 0,299.158 0,92.0486 -390.1606,0 0,-180.9592 z M 2806.6001,490.74332 l 0,40.79427 40.2713,0 0,-40.27127 z m -180.4362,2.09201 0,74.26649 77.4046,0 0,-75.3125 z m -432.5238,75.8355 0,-77.40451 75.8355,0 0,77.92752 z m -143.303,-1.046 0,-75.83551 76.8815,0 0,75.83551 z m -144.349,-39.74827 0,41.31728 75.8356,0 0,-76.88151 -38.7024,0 0,35.56423 z m -144.349,-36.61024 0,74.7895 75.8355,0 0,-74.2665 z M 107.9022,0.1661 l 0,393.2986 -105.6467,0 0,42.8863 33.4722,0 0,274.05378 78.4505,0 0,-265.68578 0,-20.9201 33.4722,0 0,-39.7483 36.61026,0 0,-158.993 -33.47226,0 0,-62.7604 34.51826,0 0,-163.1771 z m 255.22564,709.19267 3.13802,-193.51128 -40.79427,0 0,-171.54519 43.9323,0 0,-224.8914 0,-119.2448 -83.68056,1.046 0,123.4288 39.74826,0 0,198.7413 -35.56423,0 0,145.395 -36.61025,0 0,50.20831 33.47223,0 0,192.46527 z M 1519.1138,365.182 l 0,73.2243 39.9405,0 0,-31.8045 35.5027,0 0,-45.8576 -73.2242,0 z m -203.4005,344.49216 0,-104.84922 -29.5856,0 0,-37.72157 31.0648,0 0,-68.78639 39.2009,0 0,28.84591 31.0648,0 35.2938,0.0429 0,-20.75276 -38.992,0 0,-41.41973 36.9819,0 0,-34.0234 36.2423,0 0,62.86927 71.0053,0 0,68.04675 30.3252,0 0,82.09989 -23.6684,0 0,65.64837 z M 1077.5496,44.1789 l 0,156.0637 45.118,0 0,-48.0764 19.9702,0 0,-13.3135 12.5739,0 0,-96.8927 z m -128.69704,212.78384 0,-26.39494 -37.72156,0 0,-103.5493 35.50265,0 0,-64.3486 -31.80446,0 0,-20.7099 71.0053,0 0,145.7088 32.54401,0 0,34.763 -30.32509,0 0,32.25951 z m 301.03284,108.95896 0,71.0053 71.745,0 0,-70.2657 z m -170.1169,344.31263 0,-173.45614 -31.8044,0 0,-37.72157 40.6801,0 0,-135.35382 29.5855,0 0,62.8692 36.2423,0 0,51.77474 -26.6269,0 0,52.51434 25.1477,0 0,39.94049 -32.5441,0 0,61.39 67.3071,0 0,39.94049 -33.2838,0 -1.046,37.36263 z M 908.17244,397.7261 l 0,71.745 37.23573,0 0,-41.2711 38.20741,0 0,-31.9531 z m 3.69819,310.28932 0,-139.43277 74.7035,0 0,140.1724 z m -420.11473,-0.38071 0,-147.92772 19.97024,0 0,-28.84591 59.91073,0 0,-32.5441 107.98724,0 0,32.5441 70.26567,0 0,32.5441 31.06482,0 0,61.39 35.50265,0 0,47.33688 -62.86928,0 1.04601,38.715 z m 56.21254,-304.73111 34.02338,0 0,-73.2242 -76.18278,0 0,30.3252 -29.58555,0 0,78.4017 44.37832,0 0,31.0648 27.36663,0 z m 2941.63056,385.29013 0,76.92241 79.8809,0 0,-78.40169 z m -288.6542,-2.47646 0,437.38403 81.5554,0 0,-285.50057 32.5441,0 0,-39.94049 34.0233,0 0,-35.50265 75.4432,0 0,-73.96386 z m 2.615,-253.13368 0,41.84028 39.7482,0 0,-41.84028 z m -144.349,-38.17925 0,77.92752 76.3585,0 0,-77.40452 z m -141.7339,-1.04601 0,40.79427 33.9952,0 0,35.56424 40.2713,0 0,-75.3125 z m 1292.8646,332.10721 0,79.49653 75.3125,0 0,-78.45053 z m -142.257,-34.51823 0,75.3125 75.3125,0 0,-76.35851 z m -145.3949,104.60069 0,77.40452 77.4045,0 0,-74.2665 z m -143.303,-106.69271 0,74.2665 77.4045,0 0,-73.22049 z m -143.3029,0 0,75.3125 74.2664,0 0,-73.22048 z"
     inkscape:connector-curvature="0"
     sodipodi:nodetypes="cccccccccccccccccccccccccccccccccccccccccccccccccccccccccccccccccccccccccccccccccccccccccccccccccccccccccccccccccccccccccccccccccccccccccccccccccccccccccccccccccccccccccccccccccccccccccccccccccccccccccccccccccccccccccccccccccccccccccccccccccccccccccccccccccccccccccccccccccccccccccccccccccccccccccccccccccccccccccccccccccccccccccccccccccccccccccccccccccccccccccccccccccccccccccccccccccccccccccccccccccccccccccccccccccczccccccccccccccccccccccccccc"
     inkscape:export-xdpi="90"
     inkscape:export-ydpi="90" />
</svg>
