<?xml version="1.0" encoding="UTF-8" standalone="no"?>
<svg
   xmlns:dc="http://purl.org/dc/elements/1.1/"
   xmlns:cc="http://creativecommons.org/ns#"
   xmlns:rdf="http://www.w3.org/1999/02/22-rdf-syntax-ns#"
   xmlns:svg="http://www.w3.org/2000/svg"
   xmlns="http://www.w3.org/2000/svg"
   xmlns:sodipodi="http://sodipodi.sourceforge.net/DTD/sodipodi-0.dtd"
   xmlns:inkscape="http://www.inkscape.org/namespaces/inkscape"
   viewBox="0 0 1205 708"
   height="708"
   width="1205"
   version="1.1"
   id="svg3347"
   inkscape:version="0.91 r13725"
   sodipodi:docname="level.svg"
   inkscape:export-filename="C:\Users\Jonathan\Documents\DAE\Programming 2\FinalProject\ElectronicJonaJoy\Resources\Level\Level3\level.png"
   inkscape:export-xdpi="90"
   inkscape:export-ydpi="90">
  <sodipodi:namedview
     pagecolor="#ffffff"
     bordercolor="#666666"
     borderopacity="1"
     objecttolerance="10"
     gridtolerance="10"
     guidetolerance="10"
     inkscape:pageopacity="0"
     inkscape:pageshadow="2"
     inkscape:window-width="1920"
     inkscape:window-height="1017"
     id="namedview6"
     showgrid="false"
     inkscape:zoom="0.88941908"
     inkscape:cx="12073.663"
     inkscape:cy="218.73386"
     inkscape:window-x="-8"
     inkscape:window-y="-8"
     inkscape:window-maximized="1"
     inkscape:current-layer="svg3347" />
  <metadata
     id="metadata3353">
    <rdf:RDF>
      <cc:Work
         rdf:about="">
        <dc:format>image/svg+xml</dc:format>
        <dc:type
           rdf:resource="http://purl.org/dc/dcmitype/StillImage" />
        <dc:title></dc:title>
      </cc:Work>
    </rdf:RDF>
  </metadata>
  <defs
     id="defs3351" />
  <path
     id="path3350"
     style="fill:#000000;fill-rule:evenodd;stroke:#000000;stroke-width:1px;stroke-linecap:butt;stroke-linejoin:miter;stroke-opacity:1"
     d="m 2749.4213,1158.8237 0,-375.36252 34.5491,0 0,377.45452 z M 13916.69,503.77746 l 41.395,0 0,48.10775 51.464,0 0,41.39505 49.227,0 0,-48.10776 219.282,0 0,36.91991 43.632,35.80112 0,19.01934 48.108,0 0,-51.46411 -35.801,0 0,-25.73205 24.613,0 0,-13.42542 96.216,0 0,32.44476 -41.419,11.09821 0,45.95983 44.775,0 0,-27.96963 14.544,-15.66299 34.683,0 0,-43.63261 171.174,0 0,38.03869 -41.395,0 0,48.10775 39.157,0 47.549,-47.54836 0,-44.19201 231.029,0 0,-486.671479 -337.873,0 0,41.395049 -237.183,0 0,-96.215514 -409.475,0 0,79.433735 -55.939,0 z m 1.119,510.16594 0,-196.90615 -44.751,0 0,-49.22653 222.638,0 0,-49.22654 153.273,0 0,49.22654 250.608,0 0,-49.22654 95.097,0 0,48.10775 219.282,0 0,-46.98897 67.127,0 0,46.98897 69.365,0 0,271.86477 0,87.2652 -153.274,0 0,-73.8398 -412.832,0 0,35.8011 -99.571,0 0,-62.6519 -365.843,0 z m -582.887,-379.2681 0,48.10776 49.227,0 0,-49.22654 z m -133.135,-1.11878 0,53.70168 49.226,0 0,-54.82047 z m -540.475,-134.07823 0,50.63043 189.073,0 0,-51.42153 z m -312.485,-91.76766 0,51.42153 185.909,0 0,-50.63043 -182.745,0 z m -220.717,139.23368 0,51.42153 47.466,0 0,-49.83933 z m -114.458,-43.51052 0,47.46603 48.005,51.42153 44.887,0 0,-55.37704 -45.884,0 0,-41.92832 z m -11.075,-89.39435 0,49.83933 132.653,0 0,-51.42153 z m -98.022,-293.44585 0,78.68029 45.871,0 0,40.27626 -46.43,0 0,813.55076 50.345,0 0,-139.84814 92.86,0 0,-42.51383 33.563,0 0,35.80112 173.412,0 0,137.61055 60.414,0 0,-937.05815 -55.949,0 0.559,312.57635 -43.632,0.55939 1.119,54.82047 41.954,-0.55939 0,382.56642 -151.891,0 0,-38.76392 28.48,0 0,-59.70392 47.273,0 0,-53.00373 -171.476,0 0,-15.9441 -55.377,0 0,-442.31929 189.539,0 0,44.30163 50.124,0 0,-101.26086 -243.619,0 0,-104.628758 -49.048,0 z m -359.666,381.52281 0,53.34635 194.557,0 0,-54.39236 z m -1653.7359,-228.0295 0,55.43836 46.0243,0 0,92.04861 49.1624,0 0,-99.37066 99.3702,0 0,-47.07031 z m -540.7855,446.64494 0,117.15277 59.6224,0 0,-118.19877 -55.4384,0 z m -805.4253,-222.79947 0,147.48698 57.5303,0 0,-148.53298 z m -446.645,179.91319 0,48.11632 89.9566,0 0,39.74826 -38.7023,0 0,54.39236 88.9106,0 0,-100.41666 -34.5182,0 0,-50.20834 z m -763.585,42.88628 0,95.18663 49.1623,0 0,89.95659 41.8403,0 0,93.09464 54.3923,0 0,-148.533 -52.3003,0 0,-47.07031 -34.5182,0 0,-33.47222 40.7942,0 0,-55.43837 z m -803.3333,289.74386 0,-245.81157 46.0243,0 0,-46.0243 93.0946,0 0,47.07031 221.7535,0 0,-221.75346 -209.2014,0 0,33.47222 44.9783,0 0,60.6684 -61.7144,0 0,-49.16233 -47.0703,0 0,-43.93229 -87.8646,0 0,-448.73696 590.9939,0 0,131.79687 41.8403,0 0,172.59114 92.0486,0 0,59.6224 -133.8889,0 0,128.65884 130.7508,0 0,47.07031 -85.7725,0 0,182.0052 -46.0243,0 0,195.60332 z m -179.9132,-246.85757 0,56.48437 52.3003,0 0,-55.43837 z m -175.7292,3.13802 0,60.6684 52.3004,0 0,-65.89844 z m -135.9809,245.81165 0,-425.72484 48.1164,0 0,427.81684 z m -408.9887,-65.89847 0,49.16237 51.2544,0 0,-16.73615 12.5521,0 0,-13.59809 17.7821,0 6.7427,-11.67874 7.6768,2.05698 0,44.14 57.755,0 14.4613,-25.04786 -4.9891,-18.61975 26.092,0 0,-60.9331 -48.1163,0 0,33.47222 -47.0703,0 0,-28.24218 -48.1164,0 0,43.93229 z m -313.802,-832.62149 0,64.85243 -39.7483,0 0,100.41666 42.8863,0 0,77.40451 -132.8429,0 0,235.35155 133.8889,0 0,423.63281 183.0512,0 0,-117.15279 -134.9349,0 0,-124.47482 44.9783,0 0,-97.27864 -41.8403,0 0,-141.21093 -140.1649,0 0,-122.38281 132.8429,0 0,-298.11196 z m -174.6832,833.6675 0,102.50866 42.8863,0 0,-105.64668 z m -177.8211,-1.04601 0,101.46267 46.0243,0 0,-73.22048 14.6441,0 0,-27.19618 z m -315.8941,69.03647 0,-24.0582 41.8402,0 0,-48.11629 94.1407,0 0,72.17449 z m -175.7292,0 0,-904.79598 315.8941,0 0,619.23608 -140.1649,0 0,-53.34635 87.8645,0 0,-266.73176 -42.8862,0 0,-89.95659 42.8862,0 0,-137.02691 -211.2933,0 0,353.55034 77.4045,0 0,-31.38021 -46.0243,0 0,-51.25434 53.3463,0 0,38.70226 44.9783,0 0,56.48437 -128.1358,128.13585 0,339.42924 z m -540.7856,-71.12848 0,60.66838 59.6224,0 0,-60.66838 z m -176.7751,1.04601 0,61.71437 57.5304,0 0,-62.76038 z m 131.7968,-537.64755 0,49.16232 54.3924,0 0,-50.20833 z m -133.8888,-92.04861 276.1458,0 0,400.62064 172.5911,0 0,296.01999 -60.6684,0 -4.6557,-17.3755 -21.4944,0 0,-49.56897 47.0703,0 0,-170.49913 -184.0973,0 0,-405.85067 -161.085,0 0,32.42621 29.2882,0 0,56.48437 -46.0243,0 0,-40.79427 -48.1163,0 z m -1.046,-200.83332 0,75.31249 278.2378,0 0,-121.336798 -56.4844,0 0,67.990448 -164.2231,0 0,-65.898434 -58.5763,0 z m -222.7995,-2.09202 0,343.09027 53.3463,0 0,-358.78037 -53.3463,0 z m -221.7535,898.51997 0,-558.56772 140.165,0 0,223.84547 85.7725,0 0,-91.0026 48.1163,0 0,93.09462 126.5669,0 0,-89.9566 51.2543,0 0,88.91059 132.8429,0 0,49.16232 -439.3229,0 0,173.63715 127.6128,0 0,34.51823 44.9783,0 0,59.62234 -48.1163,0 0,-46.02425 -124.4748,0 0,89.95655 -55.4384,0 0,-527.18744 -40.7942,0 0,499.99134 z M 2018.424,798.25424 l 0,360.74916 29.9317,0 0,-357.61114 z m -498.9453,-685.25241 0,435.13887 51.2543,0 0,87.86458 52.3004,0 0,-88.91058 125.5208,0 0,47.07031 21.2792,-5.70175 46.0806,46.08063 29.3959,-29.39581 -48.1164,-48.11632 0,-12.02908 47.5934,0 0,-441.41491 -102.5087,0 -11.4924,-42.889966 -63.8201,0 0,46.027986 z m -177.8212,699.77862 0,50.20833 49.1624,0 0,-35.56423 84.7265,0 0,79.49652 46.0243,0 0,99.37063 0,32.4262 -50.2083,0 0,76.3586 80.5425,0 0,-53.3464 154.809,0 0,85.7726 213.3855,0 0,-126.5669 -73.2205,0 0,-155.85501 47.0703,0 0,-46.0243 49.1623,0 0,-50.20833 -554.3837,0 0,37.65625 -47.0703,0 z m -1342.02683568,-2.09201 0,49.16232 48.11631668,0 0,-40.79427 93.094609,0 0,-54.39236 -98.324644,0 0,40.79427 z"
     inkscape:connector-curvature="0"
     sodipodi:nodetypes="cccccccccccccccccccccccccccccccccccccccccccccccccccccccccccccccccccccccccccccccccccccccccccccccccccccccccccccccccccccccccccccccccccccccccccccccccccccccccccccccccccccccccccccccccccccccccccccccccccccccccccccccccccccccccccccccccccccccccccccccccccccccccccccccccccccccccccccccccccccccccccccccccccccccccccccccccccccccccccccccccccccccccccccccccccccccccccccccccccccccccccccccccccccccccccccccccccccccccccccccccccccccccccccccccccccccccccccccccccccccccccccccccccccccccccccccccccccccccccccccccccc" />
</svg>
