<?xml version="1.0" encoding="UTF-8" standalone="no"?>
<!-- Created with Inkscape (http://www.inkscape.org/) -->

<svg
   xmlns:dc="http://purl.org/dc/elements/1.1/"
   xmlns:cc="http://creativecommons.org/ns#"
   xmlns:rdf="http://www.w3.org/1999/02/22-rdf-syntax-ns#"
   xmlns:svg="http://www.w3.org/2000/svg"
   xmlns="http://www.w3.org/2000/svg"
   xmlns:sodipodi="http://sodipodi.sourceforge.net/DTD/sodipodi-0.dtd"
   xmlns:inkscape="http://www.inkscape.org/namespaces/inkscape"
   id="svg3347"
   version="1.1"
   inkscape:version="0.91 r13725"
   width="1205"
   height="708"
   viewBox="0 0 1205 708"
   sodipodi:docname="level.svg"
   inkscape:export-filename="C:\Users\Jonathan\Documents\DAE\Programming 2\FinalProject\ElectronicJonaJoy\Resources\Level\tutorial_Level\level.png"
   inkscape:export-xdpi="90"
   inkscape:export-ydpi="90">
  <metadata
     id="metadata3353">
    <rdf:RDF>
      <cc:Work
         rdf:about="">
        <dc:format>image/svg+xml</dc:format>
        <dc:type
           rdf:resource="http://purl.org/dc/dcmitype/StillImage" />
        <dc:title />
      </cc:Work>
    </rdf:RDF>
  </metadata>
  <defs
     id="defs3351" />
  <sodipodi:namedview
     pagecolor="#ffffff"
     bordercolor="#666666"
     borderopacity="1"
     objecttolerance="10"
     gridtolerance="10"
     guidetolerance="10"
     inkscape:pageopacity="0"
     inkscape:pageshadow="2"
     inkscape:window-width="1920"
     inkscape:window-height="1017"
     id="namedview3349"
     showgrid="false"
     inkscape:zoom="0.4780083"
     inkscape:cx="1118.1612"
     inkscape:cy="-28.670048"
     inkscape:window-x="-8"
     inkscape:window-y="-8"
     inkscape:window-maximized="1"
     inkscape:current-layer="svg3347" />
  <path
     id="path4133"
     style="fill:#000000;fill-rule:evenodd;stroke:#000000;stroke-width:1px;stroke-linecap:butt;stroke-linejoin:miter;stroke-opacity:1"
     d="m 1205,463.23438 0,48.11631 66.9445,0 0,-50.20833 z m -1011.14421,373.67981 0,-382.08118 -42.1899,0 0,-156.30605 103.13088,0 0,-86.01097 -78.12945,0 0,-203.887563 -84.379811,0 0,176.200523 -90.63018,0 0,45.03322 104.693471,0 0,333.38391 -60.940971,0 0,88.16491 93.755351,0 0,312.86359 54.69061,0 z m 206.53223,-99.5764 0,-288.74165 42.90768,0 0,-60.89102 -104.88543,0 0,-75.33025 79.45866,0 0,-305.4739621 85.81536,0 0,242.7103721 92.17205,0 0,100.43189 -106.47461,0 0,136.21493 61.97776,0 0,110.89353 -95.35041,0 0,347.31013 -55.62106,0 z m 100.46675,33.94009 59.79128,0 0,-44.37832 79.88097,0 0,-19.2306 87.27735,0 0,50.29542 79.88097,0 0,-20.70988 93.19446,0 0,31.06482 113.9043,0 0,-60.65036 130.1764,0 0,53.25398 162.7205,0 0,-32.5441 153.8448,0 0,60.65036 173.0754,0 0,-34.02337 75.4432,0 0,-109.46651 100.5908,0 0,81.36024 133.1349,0 0,-291.41759 152.3656,0 0,289.93832 221.8916,0 0.4296,298.53631 -1372.47718,-2.9029 -445.00232,-5.1122 z m 2358.31233,-305.78183 0,-39.74826 294.9739,0 0,37.65624 z m 2159.5493,52.74955 -213.016,-2.95855 0,-44.37832 -79.881,0 0,-19.2306 -87.2773,0 0,50.29542 -79.8809,0 0,-20.70988 -93.1945,0 0,31.06482 -113.9043,0 0,-125.73855 -130.1764,0 0,355.02651 -162.7205,0 0,-32.5441 -153.8448,0 0,60.65036 -173.0754,0 0,-34.02337 -75.4432,0 0,-109.46651 -100.5908,0 0,81.36024 -133.1349,0 0,-291.41759 -152.3656,0 0,289.93832 -221.8916,0 0,264.7906 1968.9178,0 z m -921.2009,38.45465 0,-431.52327 -79.7801,0 0,323.14955 -50.2321,0 0,107.88676 z M 5250.3387,5.2673955 l 0,112.9687445 138.073,0 0,-115.0607545 z m -857.7256,6.2760395 0,110.876735 121.3368,0 0,-108.784715 z m 796.6911,605.889615 177.5133,0 0,91.71519 -177.5133,0 z m 340.2337,-121.30072 0,79.88096 213.0159,0 0,-79.88096 z m 763.307,275.14555 221.8916,0 0,106.50795 -224.8501,0 z m 1660.3757,104.26726 531.3715,0 0,-205.01735 -184.0972,0 0.4282,81.21304 -86.3059,0 -2.3235,-29.97379 -66.6078,0 0,29.22894 -196.6493,-2.95855 z" />
</svg>
